<?xml version="1.0" standalone="no"?>
<!DOCTYPE svg PUBLIC "-//W3C//DTD SVG 20010904//EN"
 "http://www.w3.org/TR/2001/REC-SVG-20010904/DTD/svg10.dtd">
<svg version="1.0" xmlns="http://www.w3.org/2000/svg"
 width="256.000000pt" height="256.000000pt" viewBox="0 0 256.000000 256.000000"
 preserveAspectRatio="xMidYMid meet">
<metadata>
Created by potrace 1.16, written by Peter Selinger 2001-2019
</metadata>
<g transform="translate(0.000000,256.000000) scale(0.100000,-0.100000)"
fill="#000000" stroke="none">
<path d="M0 1280 l0 -1280 1280 0 1280 0 0 1280 0 1280 -1280 0 -1280 0 0
-1280z m1473 659 c52 -14 112 -71 132 -123 9 -24 17 -74 18 -112 l2 -69 -217
-5 c-246 -6 -253 -8 -295 -90 -22 -42 -23 -56 -23 -272 l0 -228 -112 0 -113
-1 -113 -135 c-75 -89 -119 -134 -130 -132 -15 3 -17 22 -20 136 l-3 132 -87
0 c-107 0 -146 10 -196 52 -73 60 -76 75 -76 403 0 259 2 294 19 330 21 47 80
102 119 111 15 3 32 7 37 9 28 9 1024 4 1058 -6z m763 -395 c19 -9 44 -31 57
-48 21 -30 22 -40 25 -300 l3 -269 -26 -39 c-39 -59 -71 -68 -235 -68 l-140 0
0 -100 c0 -73 -3 -100 -12 -100 -7 0 -50 45 -96 100 l-83 100 -215 0 c-240 0
-265 5 -305 61 -24 34 -24 35 -24 309 0 268 1 276 22 306 46 64 41 64 541 64
398 0 458 -2 488 -16z"/>
</g>
</svg>
